<?xml version="1.0" encoding="UTF-8"?>
<svg version="1.1" xmlns="http://www.w3.org/2000/svg" width="692" height="439">
<path d="M0 0 C17.73631504 13.97406639 29.782333 34.391803 32.9609375 56.859375 C33.16757901 61.20803072 33.15309605 65.51089817 32.9609375 69.859375 C34.12238281 69.82714844 35.28382813 69.79492188 36.48046875 69.76171875 C52.20782725 69.78592001 66.69527282 77.02382672 77.7421875 87.84375 C81.54935436 91.30237342 85.61437765 93.23858833 90.44140625 94.91796875 C91.5097168 95.29735596 92.57802734 95.67674316 93.67871094 96.06762695 C95.39622559 96.67610474 95.39622559 96.67610474 97.1484375 97.296875 C126.7927306 108.0767996 154.37842782 122.39676862 179.9609375 140.859375 C180.66299316 141.3632373 181.36504883 141.86709961 182.08837891 142.38623047 C201.94695777 156.71480827 221.01762714 173.24478689 236.9609375 191.859375 C237.93704219 192.95209547 238.91505267 194.04311526 239.89453125 195.1328125 C296.50451467 258.56327585 324.9609375 342.47794844 324.9609375 426.859375 C286.0209375 426.859375 247.0809375 426.859375 206.9609375 426.859375 C206.6309375 419.269375 206.3009375 411.679375 205.9609375 403.859375 C205.4881771 399.30147988 204.9887723 394.86887445 204.2734375 390.359375 C204.01288574 388.67884033 204.01288574 388.67884033 203.74707031 386.96435547 C197.02705691 345.74167359 179.25532095 307.45953236 151.9609375 275.859375 C150.79111328 274.49425781 150.79111328 274.49425781 149.59765625 273.1015625 C145.36006719 268.28295117 140.90006783 263.68021143 136.3984375 259.109375 C135.88023437 258.57803955 135.36203125 258.0467041 134.828125 257.49926758 C131.96432706 254.62963797 129.01512554 252.08066369 125.75415039 249.66699219 C125.04150528 249.13789246 124.32886017 248.60879272 123.59461975 248.06365967 C123.05550461 247.66624573 122.51638947 247.26883179 121.9609375 246.859375 C122.06917957 247.72779274 122.06917957 247.72779274 122.17960835 248.61375427 C124.44743231 266.91249182 126.40719927 285.23854343 128.2940557 303.57948685 C128.53834445 305.95284961 128.78322657 308.32615044 129.02829933 310.69943237 C129.8863467 319.0090352 130.74219975 327.31886058 131.59594727 335.62890625 C132.38771896 343.33510225 133.18453757 351.04076557 133.98359555 358.74620914 C134.67481622 365.41397947 135.36249682 372.08210884 136.04745418 378.75052547 C136.45439321 382.71168614 136.86273167 386.67268967 137.27469444 390.6333313 C137.66045526 394.34318838 138.0417873 398.05347492 138.41979599 401.76412964 C138.62425388 403.76038635 138.8332149 405.75618027 139.04234314 407.75195312 C139.16421997 408.9566626 139.2860968 410.16137207 139.41166687 411.40258789 C139.51838557 412.43847549 139.62510427 413.4743631 139.73505688 414.54164124 C140.01400009 418.63875815 139.9609375 422.75277344 139.9609375 426.859375 C33.3709375 426.859375 -73.2190625 426.859375 -183.0390625 426.859375 C-181.88307715 408.36360933 -181.88307715 408.36360933 -180.89926147 399.12101746 C-180.82751583 398.443048 -180.75577019 397.76507854 -180.68185043 397.06656456 C-180.57044409 396.0146112 -180.57044409 396.0146112 -180.45678711 394.94140625 C-180.29871192 393.42498283 -180.14094036 391.90852774 -179.98344421 390.39204407 C-179.64754866 387.16344859 -179.30967306 383.93506915 -178.97019768 380.70684814 C-178.43285601 375.59581016 -177.90080736 370.48422919 -177.36952209 365.37255859 C-176.05060209 352.69057862 -174.724829 340.00931624 -173.39776611 327.32818604 C-172.36302163 317.43960315 -171.33016694 307.5508305 -170.30291945 297.66146564 C-169.77542927 292.58535592 -169.24409485 287.50966825 -168.70978725 282.43427181 C-168.37832737 279.27770444 -168.05029635 276.12078753 -167.72319221 272.9637661 C-167.57144859 271.50598426 -167.41830169 270.04834767 -167.26361084 268.59087563 C-166.52824059 261.65576646 -165.83266719 254.83693078 -166.0390625 247.859375 C-178.82112034 257.71981962 -190.24472114 269.01405297 -200.0390625 281.859375 C-200.68222412 282.695896 -200.68222412 282.695896 -201.33837891 283.54931641 C-208.27093224 292.60663955 -214.41946491 301.93873053 -220.0390625 311.859375 C-220.40209473 312.48440918 -220.76512695 313.10944336 -221.13916016 313.75341797 C-232.81578282 333.94928804 -240.32080236 356.07703624 -245.0390625 378.859375 C-245.287771 380.05723633 -245.287771 380.05723633 -245.54150391 381.27929688 C-248.54466201 396.36282779 -248.9777929 411.4709658 -250.0390625 426.859375 C-288.6490625 426.859375 -327.2590625 426.859375 -367.0390625 426.859375 C-367.0390625 395.40527597 -367.0390625 395.40527597 -365.8515625 385.296875 C-365.7184668 384.10473389 -365.58537109 382.91259277 -365.44824219 381.68432617 C-357.26709038 312.48770497 -328.13198229 247.07515099 -282.0390625 194.859375 C-281.38325195 194.11598877 -280.72744141 193.37260254 -280.05175781 192.60668945 C-268.34404806 179.46053794 -256.02674574 166.59077473 -242.0390625 155.859375 C-240.92801796 154.95154136 -239.82016576 154.0397924 -238.71484375 153.125 C-206.84705419 126.87662864 -169.88225342 107.27576761 -130.7890625 94.234375 C-130.12300995 94.01183044 -129.4569574 93.78928589 -128.77072144 93.55999756 C-117.62656192 89.859375 -117.62656192 89.859375 -114.0390625 89.859375 C-113.83152344 88.67085938 -113.62398437 87.48234375 -113.41015625 86.2578125 C-109.03225307 62.27121485 -101.8338275 35.67149509 -87.0390625 15.859375 C-86.36359375 14.9415625 -85.688125 14.02375 -84.9921875 13.078125 C-63.79752686 -14.27952207 -28.54438197 -20.10581146 0 0 Z M-71.0390625 10.859375 C-88.06463744 29.09413548 -104.0390625 61.61926593 -104.0390625 86.859375 C-103.00072266 86.65574341 -103.00072266 86.65574341 -101.94140625 86.44799805 C-89.43401349 84.01428847 -76.93688925 81.6872655 -64.2890625 80.109375 C-63.37640625 79.99424561 -62.46375 79.87911621 -61.5234375 79.76049805 C-50.11168082 78.40473708 -38.81956311 77.76506273 -27.3359375 77.9375 C-26.39784241 77.95000793 -25.45974731 77.96251587 -24.4932251 77.97540283 C-20.60960312 78.02971634 -16.72661282 78.08637144 -12.84375 78.18164062 C2.6988546 78.55821269 2.6988546 78.55821269 16.9609375 72.859375 C19.28261472 72.04033959 21.5673664 71.44447016 23.9609375 70.859375 C25.299199 51.23153968 17.71377959 32.58587123 4.9609375 17.859375 C4.34734375 17.04855469 3.73375 16.23773437 3.1015625 15.40234375 C-6.18063103 4.37550435 -19.92176958 -1.64637757 -34.0390625 -3.140625 C-48.01399772 -3.58147469 -60.73474025 1.45048182 -71.0390625 10.859375 Z M32.9609375 78.859375 C32.6309375 79.519375 32.3009375 80.179375 31.9609375 80.859375 C37.19775689 82.24873525 42.47064243 83.43737299 47.7734375 84.546875 C49.05863281 84.81886719 50.34382813 85.09085937 51.66796875 85.37109375 C54.95592668 86.11213245 54.95592668 86.11213245 57.9609375 84.859375 C49.56232233 81.1883674 42.15143249 79.04152895 32.9609375 78.859375 Z " fill="#414142" transform="translate(367.0390625,12.140625)"/>
<path d="M0 0 C-0.26862692 2.35443595 -0.53954936 4.70856322 -0.8125 7.0625 C-0.90015625 7.82054932 -0.9878125 8.57859863 -1.078125 9.35961914 C-1.58658717 13.69156015 -2.13107368 18.01559189 -2.73046875 22.3359375 C-4.7360414 36.87185676 -5.97118633 51.35919013 -7 66 C-18.22 66 -29.44 66 -41 66 C-41.26683594 69.50367188 -41.53367188 73.00734375 -41.80859375 76.6171875 C-42.87634089 90.19481911 -44.23829259 103.73715085 -45.65942383 117.28173828 C-46.06864328 121.18357514 -46.47311452 125.08588413 -46.87695312 128.98828125 C-47.13774992 131.49481987 -47.39880761 134.00133136 -47.66015625 136.5078125 C-47.77996353 137.66193634 -47.89977081 138.81606018 -48.02320862 140.00515747 C-48.24420281 142.1062432 -48.47035044 144.2067969 -48.70298767 146.30662537 C-48.88338811 147.9425371 -49.05263432 149.57979887 -49.20143127 151.21888733 C-49.47657523 153.82103105 -49.74859545 155.65237714 -51.30004883 157.79760742 C-51.84685303 158.22920166 -52.39365723 158.6607959 -52.95703125 159.10546875 C-53.87524658 159.85884521 -53.87524658 159.85884521 -54.81201172 160.62744141 C-55.47217285 161.14226074 -56.13233398 161.65708008 -56.8125 162.1875 C-58.18920199 163.3205786 -59.56285824 164.45736697 -60.93359375 165.59765625 C-61.62050293 166.16500488 -62.30741211 166.73235352 -63.01513672 167.31689453 C-71.62122074 174.61459973 -79.13875342 183.06743369 -86 192 C-86.64751221 192.84087158 -86.64751221 192.84087158 -87.30810547 193.69873047 C-94.23716648 202.75299869 -100.38266917 212.08335719 -106 222 C-106.36303223 222.62503418 -106.72606445 223.25006836 -107.10009766 223.89404297 C-118.77672032 244.08991304 -126.28173986 266.21766124 -131 289 C-131.2487085 290.19786133 -131.2487085 290.19786133 -131.50244141 291.41992188 C-134.50559951 306.50345279 -134.9387304 321.6115908 -136 337 C-174.61 337 -213.22 337 -253 337 C-253 305.54590097 -253 305.54590097 -251.8125 295.4375 C-251.6794043 294.24535889 -251.54630859 293.05321777 -251.40917969 291.82495117 C-243.22802788 222.62832997 -214.09291979 157.21577599 -168 105 C-167.34418945 104.25661377 -166.68837891 103.51322754 -166.01269531 102.74731445 C-154.30498556 89.60116294 -141.98768324 76.73139973 -128 66 C-126.88895546 65.09216636 -125.78110326 64.1804174 -124.67578125 63.265625 C-92.80799169 37.01725364 -55.84319092 17.41639261 -16.75 4.375 C-16.08394745 4.15245544 -15.4178949 3.92991089 -14.73165894 3.70062256 C-3.58749942 0 -3.58749942 0 0 0 Z " fill="#FBAF40" transform="translate(253,102)"/>
<path d="M0 0 C7.79978007 1.46038435 14.88926166 4.06788199 22.25 7 C22.86460083 7.24398529 23.47920166 7.48797058 24.11242676 7.73934937 C50.37906009 18.19311629 75.1131767 31.33987036 98 48 C98.65371582 48.47115234 99.30743164 48.94230469 99.98095703 49.42773438 C119.88189169 63.81904508 139.00693467 80.32732055 155 99 C155.97610469 100.09272047 156.95411517 101.18374026 157.93359375 102.2734375 C214.54357717 165.70390085 243 249.61857344 243 334 C204.06 334 165.12 334 125 334 C124.67 326.41 124.34 318.82 124 311 C123.5272396 306.44210488 123.0278348 302.00949945 122.3125 297.5 C122.13879883 296.37964355 121.96509766 295.25928711 121.78613281 294.10498047 C115.06611941 252.88229859 97.29438345 214.60015736 70 183 C69.22011719 182.08992187 68.44023438 181.17984375 67.63671875 180.2421875 C56.47347921 167.39112025 56.47347921 167.39112025 43.3125 156.75 C39.59116952 154.12803421 39.22861523 151.87237131 38.40255737 147.55126953 C37.72138001 143.23420276 37.23935031 138.91174537 36.81640625 134.5625 C36.71623199 133.57563705 36.61605774 132.58877411 36.5128479 131.57200623 C36.19062693 128.38185622 35.87633454 125.19098499 35.5625 122 C35.34250325 119.80213472 35.12220513 117.60429958 34.90161133 115.40649414 C33.15767219 97.94756214 31.52802241 80.47908562 30 63 C23.73 63 17.46 63 11 63 C11.03480469 60.85242188 11.06960938 58.70484375 11.10546875 56.4921875 C11.12901329 54.36052777 11.14714437 52.22888375 11.16479492 50.09716797 C11.17967624 48.6407194 11.19998796 47.18431392 11.22631836 45.72802734 C11.45087875 32.96771322 10.61855248 20.75015679 4.375 9.3125 C1.02226345 3.06679035 1.02226345 3.06679035 0 0 Z " fill="#F97911" transform="translate(449,105)"/>
<path d="M0 0 C2.21971323 0.00540974 4.43922798 -0.00001329 6.65893555 -0.00634766 C14.12885593 -0.00946467 21.46746126 0.20696446 28.89135742 1.13037109 C28.21073242 1.79037109 27.53010742 2.45037109 26.82885742 3.13037109 C25.84481031 4.12556888 24.8662273 5.12618182 23.89135742 6.13037109 C23.32545898 6.71173828 22.75956055 7.29310547 22.17651367 7.89208984 C15.58462493 15.0032521 10.7887782 23.15274939 10.64135742 33.00537109 C10.61557617 34.03404297 10.58979492 35.06271484 10.56323242 36.12255859 C10.93632544 39.54257797 11.86108236 41.38062962 13.89135742 44.13037109 C17.64451288 46.00694882 21.89620122 45.72093733 25.84448242 44.55224609 C39.99884992 38.22305737 47.45819293 24.92982148 52.89135742 11.13037109 C53.58366105 8.80451543 54.25602679 6.47243084 54.89135742 4.13037109 C88.21928632 8.82044211 88.21928632 8.82044211 95.89135742 18.13037109 C109.50587772 36.43277777 110.63608121 57.17258076 107.89135742 79.13037109 C42.55135742 79.13037109 -22.78864258 79.13037109 -90.10864258 79.13037109 C-90.10864258 65.62751803 -90.10864258 65.62751803 -89.52270508 60.79833984 C-89.39766602 59.74042236 -89.27262695 58.68250488 -89.14379883 57.5925293 C-89.00844727 56.51189209 -88.8730957 55.43125488 -88.73364258 54.31787109 C-88.59571289 53.17858154 -88.4577832 52.03929199 -88.31567383 50.86547852 C-87.92018407 47.61955174 -87.51487653 44.37496695 -87.10864258 41.13037109 C-86.9283807 39.6330443 -86.74860316 38.13565901 -86.56958008 36.63818359 C-86.13152977 33.12635652 -85.63380499 29.63011752 -85.10864258 26.13037109 C-84.9783667 25.13046143 -84.9783667 25.13046143 -84.84545898 24.11035156 C-84.56914619 22.02763784 -84.24991583 19.95537865 -83.92114258 17.88037109 C-83.74196289 16.65833984 -83.5627832 15.43630859 -83.37817383 14.17724609 C-82.10864258 11.13037109 -82.10864258 11.13037109 -79.33129883 9.36865234 C-73.64944418 7.43057604 -67.63474007 6.56900275 -61.73364258 5.56787109 C-60.48301025 5.35098633 -59.23237793 5.13410156 -57.94384766 4.91064453 C-48.69920053 3.33530742 -39.45953051 1.89439382 -30.10864258 1.13037109 C-29.05088623 1.04352051 -27.99312988 0.95666992 -26.90332031 0.8671875 C-17.92193536 0.19627027 -9.00277645 -0.02606304 0 0 Z " fill="#FBAF41" transform="translate(344.108642578125,88.86962890625)"/>
<path d="M0 0 C7.79978007 1.46038435 14.88926166 4.06788199 22.25 7 C22.86460083 7.24398529 23.47920166 7.48797058 24.11242676 7.73934937 C50.37906009 18.19311629 75.1131767 31.33987036 98 48 C98.65371582 48.47115234 99.30743164 48.94230469 99.98095703 49.42773438 C116.48112029 61.35978582 131.28744541 74.95558062 146 89 C142.20238982 91.00830448 138.23038965 92.57451436 134.25 94.17578125 C133.07130089 94.65229126 133.07130089 94.65229126 131.86878967 95.13842773 C129.246509 96.19806739 126.62327759 97.25533101 124 98.3125 C122.15286122 99.05805757 120.30577576 99.80374723 118.45874023 100.54956055 C115.50141074 101.74357299 112.54398852 102.93735316 109.58628845 104.13044739 C102.91451737 106.82191517 96.24521968 109.51942348 89.57754517 112.22102356 C84.88849391 114.12082917 80.19879897 116.01904273 75.5090332 117.91708374 C73.22590959 118.84146416 70.94302867 119.76644422 68.66040039 120.69204712 C65.43189122 122.00095896 62.20238547 123.3073833 58.97265625 124.61328125 C58.02520035 124.99806641 57.07774445 125.38285156 56.10157776 125.77929688 C49.78393817 128.33004303 43.4169498 130.71085256 37 133 C36.23352022 125.64513791 35.46838854 118.29013684 34.7049036 110.93496323 C34.35021728 107.51842383 33.995094 104.10193111 33.63891602 100.68554688 C33.22796874 96.74363053 32.81902291 92.80150771 32.41015625 88.859375 C32.28407486 87.65263123 32.15799347 86.44588745 32.02809143 85.20257568 C31.26295796 77.80740869 30.59454837 70.41088503 30 63 C23.73 63 17.46 63 11 63 C11.03480469 60.85242188 11.06960938 58.70484375 11.10546875 56.4921875 C11.12901329 54.36052777 11.14714437 52.22888375 11.16479492 50.09716797 C11.17967624 48.6407194 11.19998796 47.18431392 11.22631836 45.72802734 C11.45087875 32.96771322 10.61855248 20.75015679 4.375 9.3125 C1.02226345 3.06679035 1.02226345 3.06679035 0 0 Z " fill="#FBAF40" transform="translate(449,105)"/>
<path d="M0 0 C0.17408316 7.22823564 -0.49339795 14.15049795 -1.4375 21.3125 C-1.57220703 22.38306641 -1.70691406 23.45363281 -1.84570312 24.55664062 C-2.87254583 32.55599574 -2.87254583 32.55599574 -3.489151 34.70402527 C-4.19436608 37.87356461 -4.35261243 41.01173464 -4.5625 44.25 C-4.68818359 46.14492188 -4.68818359 46.14492188 -4.81640625 48.078125 C-4.87699219 49.04234375 -4.93757813 50.0065625 -5 51 C-74.2292328 51.39303649 -74.2292328 51.39303649 -96.25 50.0625 C-96.97424164 50.01893372 -97.69848328 49.97536743 -98.44467163 49.93048096 C-105.65434987 49.48163183 -112.82903579 48.86897055 -120 48 C-117.31701201 46.21134134 -114.97758925 45.06961232 -112.015625 43.84765625 C-110.43201172 43.19253052 -110.43201172 43.19253052 -108.81640625 42.52416992 C-107.63949219 42.04181885 -106.46257812 41.55946777 -105.25 41.0625 C-103.98303506 40.54086341 -102.71610933 40.0191316 -101.44921875 39.49731445 C-87.30609461 33.68248428 -73.12453518 27.96090501 -58.94116211 22.24511719 C-49.24791623 18.33828134 -39.56100503 14.41798849 -29.89453125 10.4453125 C-27.34202164 9.39919591 -24.78932224 8.35354379 -22.23657227 7.30801392 C-20.63235392 6.64919623 -19.02914456 5.98791578 -17.42700195 5.32406616 C-15.23114641 4.41432388 -13.03202799 3.5129525 -10.83203125 2.61328125 C-10.19264114 2.34552887 -9.55325104 2.07777649 -8.89448547 1.8019104 C-5.62987925 0.47678527 -3.60544778 0 0 0 Z " fill="#F97911" transform="translate(121,387)"/>
<path d="M0 0 C-1.16335889 13.37862724 -8.15064929 23.01369583 -18.10546875 31.58984375 C-20.01680367 33.01250747 -21.79781471 34.09108985 -24 35 C-26.25 34.625 -26.25 34.625 -28 34 C-29.01626642 25.19235772 -25.35413454 18.24218158 -19.94921875 11.40625 C-14.77292632 5.88977494 -7.93154942 0 0 0 Z " fill="#F7AD41" transform="translate(390,92)"/>
<path d="M0 0 C-0.20496094 0.6290625 -0.40992188 1.258125 -0.62109375 1.90625 C-2.31971235 7.30281819 -3.47838853 12.36659614 -4 18 C-2.35 18.33 -0.7 18.66 1 19 C1.81381795 17.06305322 2.62600916 15.12542289 3.4375 13.1875 C3.88996094 12.10855469 4.34242188 11.02960938 4.80859375 9.91796875 C5.60375013 7.9704874 6.33479648 5.99561057 7 4 C7.66 4 8.32 4 9 4 C12.15656103 7.763592 12.46532378 11.13194601 12.28515625 15.85546875 C11.70186755 20.24211937 9.67563933 22.40675571 6.4375 25.25 C2.40568019 28.14463986 0.00221793 28.41685149 -5 28 C-9.77675106 25.56479358 -12.63596434 22.81899576 -15 18 C-15.85888081 13.94252859 -15.92622277 10.57756652 -13.7890625 6.9375 C-9.78806938 2.06319366 -6.48071123 -0.36003951 0 0 Z " fill="#F5AB41" transform="translate(446,194)"/>
<path d="M0 0 C0.33 5.94 0.66 11.88 1 18 C3.31 18 5.62 18 8 18 C8.33 12.39 8.66 6.78 9 1 C14.39926108 4.23955665 15.26098018 5.20326727 17 11 C16.90459855 16.43788292 15.49371529 19.84531154 12 24 C7.634442 26.910372 4.20499921 27.6506249 -1 27 C-6.08643801 24.26114877 -9.17004027 21.4898792 -11 16 C-11.53923825 10.28407456 -10.63434458 7.44197671 -7 3 C-4.34200077 0.58363706 -3.64705667 0 0 0 Z " fill="#F5AC41" transform="translate(244,195)"/>
</svg>
